<svg width="25" height="24" viewBox="0 0 25 24" fill="none" xmlns="http://www.w3.org/2000/svg">
<path fill-rule="evenodd" clip-rule="evenodd" d="M21.5555 5.4H3.77774V19.8H21.5555V5.4ZM3.77774 4.2C3.16409 4.2 2.66663 4.73726 2.66663 5.4V19.8C2.66663 20.4627 3.16409 21 3.77774 21H21.5555C22.1692 21 22.6666 20.4627 22.6666 19.8V5.4C22.6666 4.73726 22.1692 4.2 21.5555 4.2H3.77774Z" fill="black"/>
<path d="M5.99996 3.6C5.99996 3.26863 6.24869 3 6.55552 3C6.86234 3 7.11107 3.26863 7.11107 3.6V6C7.11107 6.33137 6.86234 6.6 6.55552 6.6C6.24869 6.6 5.99996 6.33137 5.99996 6V3.6Z" fill="black"/>
<path d="M19.3333 3.6C19.3333 3.26863 19.582 3 19.8888 3C20.1957 3 20.4444 3.26863 20.4444 3.6V6C20.4444 6.33137 20.1957 6.6 19.8888 6.6C19.582 6.6 19.3333 6.33137 19.3333 6V3.6Z" fill="black"/>
<path fill-rule="evenodd" clip-rule="evenodd" d="M8.49996 9.3H7.38885V10.5H8.49996V9.3ZM7.38885 9C7.23544 9 7.11107 9.13431 7.11107 9.3V10.5C7.11107 10.6657 7.23544 10.8 7.38885 10.8H8.49996C8.65337 10.8 8.77774 10.6657 8.77774 10.5V9.3C8.77774 9.13431 8.65337 9 8.49996 9H7.38885Z" fill="black"/>
<path fill-rule="evenodd" clip-rule="evenodd" d="M8.49996 12.9H7.38885V14.1H8.49996V12.9ZM7.38885 12.6C7.23544 12.6 7.11107 12.7343 7.11107 12.9V14.1C7.11107 14.2657 7.23544 14.4 7.38885 14.4H8.49996C8.65337 14.4 8.77774 14.2657 8.77774 14.1V12.9C8.77774 12.7343 8.65337 12.6 8.49996 12.6H7.38885Z" fill="black"/>
<path fill-rule="evenodd" clip-rule="evenodd" d="M8.49996 16.5H7.38885V17.7H8.49996V16.5ZM7.38885 16.2C7.23544 16.2 7.11107 16.3343 7.11107 16.5V17.7C7.11107 17.8657 7.23544 18 7.38885 18H8.49996C8.65337 18 8.77774 17.8657 8.77774 17.7V16.5C8.77774 16.3343 8.65337 16.2 8.49996 16.2H7.38885Z" fill="black"/>
<path fill-rule="evenodd" clip-rule="evenodd" d="M11.2777 9.3H10.1666V10.5H11.2777V9.3ZM10.1666 9C10.0132 9 9.88885 9.13431 9.88885 9.3V10.5C9.88885 10.6657 10.0132 10.8 10.1666 10.8H11.2777C11.4312 10.8 11.5555 10.6657 11.5555 10.5V9.3C11.5555 9.13431 11.4312 9 11.2777 9H10.1666Z" fill="black"/>
<path fill-rule="evenodd" clip-rule="evenodd" d="M11.2777 12.9H10.1666V14.1H11.2777V12.9ZM10.1666 12.6C10.0132 12.6 9.88885 12.7343 9.88885 12.9V14.1C9.88885 14.2657 10.0132 14.4 10.1666 14.4H11.2777C11.4312 14.4 11.5555 14.2657 11.5555 14.1V12.9C11.5555 12.7343 11.4312 12.6 11.2777 12.6H10.1666Z" fill="black"/>
<path fill-rule="evenodd" clip-rule="evenodd" d="M11.2777 16.5H10.1666V17.7H11.2777V16.5ZM10.1666 16.2C10.0132 16.2 9.88885 16.3343 9.88885 16.5V17.7C9.88885 17.8657 10.0132 18 10.1666 18H11.2777C11.4312 18 11.5555 17.8657 11.5555 17.7V16.5C11.5555 16.3343 11.4312 16.2 11.2777 16.2H10.1666Z" fill="black"/>
<path fill-rule="evenodd" clip-rule="evenodd" d="M14.0555 9.3H12.9444V10.5H14.0555V9.3ZM12.9444 9C12.791 9 12.6666 9.13431 12.6666 9.3V10.5C12.6666 10.6657 12.791 10.8 12.9444 10.8H14.0555C14.2089 10.8 14.3333 10.6657 14.3333 10.5V9.3C14.3333 9.13431 14.2089 9 14.0555 9H12.9444Z" fill="black"/>
<path fill-rule="evenodd" clip-rule="evenodd" d="M14.0555 12.9H12.9444V14.1H14.0555V12.9ZM12.9444 12.6C12.791 12.6 12.6666 12.7343 12.6666 12.9V14.1C12.6666 14.2657 12.791 14.4 12.9444 14.4H14.0555C14.2089 14.4 14.3333 14.2657 14.3333 14.1V12.9C14.3333 12.7343 14.2089 12.6 14.0555 12.6H12.9444Z" fill="black"/>
<path fill-rule="evenodd" clip-rule="evenodd" d="M14.0555 16.5H12.9444V17.7H14.0555V16.5ZM12.9444 16.2C12.791 16.2 12.6666 16.3343 12.6666 16.5V17.7C12.6666 17.8657 12.791 18 12.9444 18H14.0555C14.2089 18 14.3333 17.8657 14.3333 17.7V16.5C14.3333 16.3343 14.2089 16.2 14.0555 16.2H12.9444Z" fill="black"/>
<path fill-rule="evenodd" clip-rule="evenodd" d="M19.6111 9.3H18.5V10.5H19.6111V9.3ZM18.5 9C18.3465 9 18.2222 9.13431 18.2222 9.3V10.5C18.2222 10.6657 18.3465 10.8 18.5 10.8H19.6111C19.7645 10.8 19.8888 10.6657 19.8888 10.5V9.3C19.8888 9.13431 19.7645 9 19.6111 9H18.5Z" fill="black"/>
<path fill-rule="evenodd" clip-rule="evenodd" d="M19.6111 12.9H18.5V14.1H19.6111V12.9ZM18.5 12.6C18.3465 12.6 18.2222 12.7343 18.2222 12.9V14.1C18.2222 14.2657 18.3465 14.4 18.5 14.4H19.6111C19.7645 14.4 19.8888 14.2657 19.8888 14.1V12.9C19.8888 12.7343 19.7645 12.6 19.6111 12.6H18.5Z" fill="black"/>
<path fill-rule="evenodd" clip-rule="evenodd" d="M19.6111 16.5H18.5V17.7H19.6111V16.5ZM18.5 16.2C18.3465 16.2 18.2222 16.3343 18.2222 16.5V17.7C18.2222 17.8657 18.3465 18 18.5 18H19.6111C19.7645 18 19.8888 17.8657 19.8888 17.7V16.5C19.8888 16.3343 19.7645 16.2 19.6111 16.2H18.5Z" fill="black"/>
<path fill-rule="evenodd" clip-rule="evenodd" d="M16.8333 9.3H15.7222V10.5H16.8333V9.3ZM15.7222 9C15.5688 9 15.4444 9.13431 15.4444 9.3V10.5C15.4444 10.6657 15.5688 10.8 15.7222 10.8H16.8333C16.9867 10.8 17.1111 10.6657 17.1111 10.5V9.3C17.1111 9.13431 16.9867 9 16.8333 9H15.7222Z" fill="black"/>
<path fill-rule="evenodd" clip-rule="evenodd" d="M16.8333 12.9H15.7222V14.1H16.8333V12.9ZM15.7222 12.6C15.5688 12.6 15.4444 12.7343 15.4444 12.9V14.1C15.4444 14.2657 15.5688 14.4 15.7222 14.4H16.8333C16.9867 14.4 17.1111 14.2657 17.1111 14.1V12.9C17.1111 12.7343 16.9867 12.6 16.8333 12.6H15.7222Z" fill="black"/>
<path fill-rule="evenodd" clip-rule="evenodd" d="M16.8333 16.5H15.7222V17.7H16.8333V16.5ZM15.7222 16.2C15.5688 16.2 15.4444 16.3343 15.4444 16.5V17.7C15.4444 17.8657 15.5688 18 15.7222 18H16.8333C16.9867 18 17.1111 17.8657 17.1111 17.7V16.5C17.1111 16.3343 16.9867 16.2 16.8333 16.2H15.7222Z" fill="black"/>
<path d="M4.88885 9.6144V9.1752L5.76663 9V10.716H5.29996V9.516L4.88885 9.6144Z" fill="black"/>
<path d="M4.88885 14.3184L5.55774 13.5864C5.60366 13.532 5.64292 13.4848 5.67551 13.4448C5.70959 13.4032 5.73551 13.3632 5.75329 13.3248C5.77107 13.2864 5.77996 13.2456 5.77996 13.2024C5.77996 13.1816 5.777 13.1616 5.77107 13.1424C5.76514 13.1232 5.75552 13.1064 5.74218 13.092C5.72885 13.0776 5.71181 13.0664 5.69107 13.0584C5.67181 13.0488 5.64811 13.044 5.61996 13.044C5.58292 13.044 5.55033 13.0552 5.52218 13.0776C5.49403 13.0984 5.47181 13.1272 5.45551 13.164C5.4407 13.2008 5.43329 13.2416 5.43329 13.2864H4.95551C4.95551 13.1664 4.9807 13.0544 5.03107 12.9504C5.08144 12.8464 5.157 12.7624 5.25774 12.6984C5.35996 12.6328 5.48663 12.6 5.63774 12.6C5.73996 12.6 5.83107 12.616 5.91107 12.648C5.99255 12.6784 6.0607 12.7208 6.11552 12.7752C6.17181 12.828 6.21403 12.888 6.24218 12.9552C6.27181 13.0224 6.28663 13.092 6.28663 13.164C6.28663 13.2568 6.26514 13.3392 6.22218 13.4112C6.17922 13.4816 6.12218 13.5464 6.05107 13.6056L5.77107 13.8384H6.34218V14.3184H4.88885Z" fill="black"/>
<path d="M5.43996 17.112V16.8984C5.47848 16.8984 5.51403 16.8936 5.54663 16.884C5.5807 16.8744 5.60959 16.8608 5.63329 16.8432C5.65848 16.8256 5.67774 16.8056 5.69107 16.7832C5.7044 16.7608 5.71107 16.7376 5.71107 16.7136C5.71107 16.6928 5.70589 16.6744 5.69552 16.6584C5.68514 16.6424 5.66959 16.6304 5.64885 16.6224C5.62959 16.6128 5.60366 16.608 5.57107 16.608C5.5207 16.608 5.47996 16.6232 5.44885 16.6536C5.41774 16.684 5.40218 16.724 5.40218 16.7736H4.95551C4.95551 16.6664 4.9807 16.5696 5.03107 16.4832C5.08144 16.3968 5.15255 16.328 5.2444 16.2768C5.33774 16.2256 5.44737 16.2 5.57329 16.2C5.70663 16.2 5.81922 16.2208 5.91107 16.2624C6.00292 16.304 6.07255 16.3608 6.11996 16.4328C6.16737 16.5048 6.19107 16.5864 6.19107 16.6776C6.19107 16.7848 6.157 16.8704 6.08885 16.9344C6.0207 16.9968 5.92959 17.0424 5.81552 17.0712C5.70292 17.0984 5.57774 17.112 5.43996 17.112ZM5.55107 17.964C5.44589 17.964 5.35181 17.9464 5.26885 17.9112C5.18737 17.876 5.11848 17.828 5.06218 17.7672C5.00589 17.7064 4.96292 17.6384 4.93329 17.5632C4.90366 17.4864 4.88885 17.408 4.88885 17.328H5.36885C5.36885 17.384 5.37848 17.4288 5.39774 17.4624C5.41848 17.496 5.4444 17.52 5.47552 17.5344C5.50811 17.5488 5.5407 17.556 5.57329 17.556C5.60737 17.556 5.63774 17.552 5.6644 17.544C5.69255 17.5344 5.71477 17.5184 5.73107 17.496C5.74737 17.472 5.75552 17.44 5.75552 17.4C5.75552 17.376 5.75033 17.3528 5.73996 17.3304C5.72959 17.3064 5.71255 17.2856 5.68885 17.268C5.66514 17.2488 5.63255 17.2344 5.59107 17.2248C5.55107 17.2136 5.5007 17.208 5.43996 17.208V16.9584C5.55996 16.9584 5.66811 16.968 5.7644 16.9872C5.86218 17.0048 5.94589 17.0336 6.01551 17.0736C6.08663 17.1136 6.1407 17.1648 6.17774 17.2272C6.21626 17.288 6.23551 17.3616 6.23551 17.448C6.23551 17.5472 6.20885 17.636 6.15551 17.7144C6.10366 17.7912 6.02663 17.852 5.9244 17.8968C5.82366 17.9416 5.69922 17.964 5.55107 17.964Z" fill="black"/>
<path d="M10.9066 6.7776L10.8 7.8H10.5288L10.7422 6.036L11.38 7.176L12.02 6.036L12.2333 7.8H11.9622L11.8533 6.7776L11.38 7.644L10.9066 6.7776Z" fill="black"/>
<path d="M12.6195 7.4568C12.6195 7.4936 12.6277 7.5256 12.644 7.5528C12.6602 7.5784 12.6825 7.5976 12.7106 7.6104C12.7402 7.6232 12.7736 7.6296 12.8106 7.6296C12.858 7.6296 12.901 7.6192 12.9395 7.5984C12.9795 7.5776 13.0114 7.5472 13.0351 7.5072C13.0602 7.4656 13.0728 7.4176 13.0728 7.3632L13.1084 7.5072C13.1084 7.5776 13.0891 7.6368 13.0506 7.6848C13.0136 7.7312 12.9662 7.7664 12.9084 7.7904C12.8521 7.8128 12.7943 7.824 12.7351 7.824C12.6714 7.824 12.6121 7.8104 12.5573 7.7832C12.5025 7.756 12.4588 7.716 12.4262 7.6632C12.3936 7.6104 12.3773 7.5464 12.3773 7.4712C12.3773 7.364 12.4121 7.2792 12.4817 7.2168C12.5514 7.1528 12.6499 7.1208 12.7773 7.1208C12.8454 7.1208 12.904 7.1288 12.9528 7.1448C13.0032 7.1608 13.0447 7.18 13.0773 7.2024C13.1099 7.2232 13.1328 7.2424 13.1462 7.26V7.392C13.1002 7.3568 13.0514 7.3312 12.9995 7.3152C12.9477 7.2992 12.8928 7.2912 12.8351 7.2912C12.7847 7.2912 12.744 7.2984 12.7128 7.3128C12.6817 7.3256 12.658 7.344 12.6417 7.368C12.6269 7.392 12.6195 7.4216 12.6195 7.4568ZM12.544 6.984L12.4462 6.8016C12.4921 6.7712 12.5514 6.7416 12.624 6.7128C12.698 6.684 12.7825 6.6696 12.8773 6.6696C12.9617 6.6696 13.0358 6.6832 13.0995 6.7104C13.1647 6.7376 13.2158 6.7768 13.2528 6.828C13.2899 6.8776 13.3084 6.9392 13.3084 7.0128V7.8H13.0728V7.0632C13.0728 7.028 13.0669 6.9992 13.0551 6.9768C13.0447 6.9544 13.0299 6.936 13.0106 6.9216C12.9914 6.9072 12.9684 6.8968 12.9417 6.8904C12.9151 6.884 12.8862 6.8808 12.8551 6.8808C12.8077 6.8808 12.7625 6.8872 12.7195 6.9C12.678 6.9112 12.6417 6.9256 12.6106 6.9432C12.581 6.9592 12.5588 6.9728 12.544 6.984Z" fill="black"/>
<path d="M14.4818 6.696L13.8151 8.328H13.5596L13.8262 7.6704L13.4151 6.696H13.6907L14.0173 7.5696L13.904 7.5624L14.224 6.696H14.4818Z" fill="black"/>
</svg>
