<svg width="20" height="21" viewBox="0 0 20 21" fill="none" xmlns="http://www.w3.org/2000/svg">
<path d="M1 18.79V3.50005C1 2.96961 1.21071 2.46091 1.58579 2.08583C1.96086 1.71076 2.46957 1.50005 3 1.50005H17C17.5304 1.50005 18.0391 1.71076 18.4142 2.08583C18.7893 2.46091 19 2.96961 19 3.50005V14.25C19 14.7805 18.7893 15.2892 18.4142 15.6643C18.0391 16.0393 17.5304 16.25 17 16.25H6.061C5.76123 16.2501 5.46531 16.3175 5.19511 16.4473C4.92491 16.5771 4.68735 16.766 4.5 17L2.069 19.164C1.99143 19.2613 1.88556 19.332 1.76604 19.3664C1.64652 19.4008 1.51926 19.3972 1.40186 19.3562C1.28446 19.3151 1.18273 19.2386 1.11073 19.1371C1.03874 19.0357 1.00005 18.9144 1 18.79Z" stroke="black" stroke-width="1.5"/>
</svg>
