<svg width="25" height="24" viewBox="0 0 25 24" fill="none" xmlns="http://www.w3.org/2000/svg">
<path fill-rule="evenodd" clip-rule="evenodd" d="M15.0665 5.125C14.0172 5.125 13.1665 5.96447 13.1665 7C13.1665 8.03553 14.0172 8.875 15.0665 8.875C16.1158 8.875 16.9665 8.03553 16.9665 7C16.9665 5.96447 16.1158 5.125 15.0665 5.125ZM17.1247 9.37502C17.8032 8.80187 18.2332 7.95049 18.2332 7C18.2332 5.27411 16.8154 3.875 15.0665 3.875C13.3176 3.875 11.8998 5.27411 11.8998 7C11.8998 7.95049 12.3298 8.80187 13.0084 9.37502C12.615 9.57845 12.2514 9.84084 11.9317 10.1564C11.1003 10.9769 10.6332 12.0897 10.6332 13.25C10.6332 13.5952 10.9167 13.875 11.2665 13.875C11.6163 13.875 11.8998 13.5952 11.8998 13.25C11.8998 12.4212 12.2335 11.6263 12.8273 11.0403C13.4212 10.4542 14.2267 10.125 15.0665 10.125C15.9064 10.125 16.7118 10.4542 17.3057 11.0403C17.8995 11.6263 18.2332 12.4212 18.2332 13.25C18.2332 13.5952 18.5167 13.875 18.8665 13.875C19.2163 13.875 19.4998 13.5952 19.4998 13.25C19.4998 12.0897 19.0328 10.9769 18.2013 10.1564C17.8816 9.84084 17.518 9.57845 17.1247 9.37502Z" fill="black"/>
<path fill-rule="evenodd" clip-rule="evenodd" d="M21.3998 3.25H6.19984V20.75H21.3998V3.25ZM6.19984 2C5.50028 2 4.93318 2.55964 4.93318 3.25V20.75C4.93318 21.4404 5.50028 22 6.19984 22H21.3998C22.0994 22 22.6665 21.4404 22.6665 20.75V3.25C22.6665 2.55964 22.0994 2 21.3998 2H6.19984Z" fill="black"/>
<path fill-rule="evenodd" clip-rule="evenodd" d="M10.6332 15.125C10.6332 14.7798 10.9167 14.5 11.2665 14.5H18.8665C19.2163 14.5 19.4998 14.7798 19.4998 15.125C19.4998 15.4702 19.2163 15.75 18.8665 15.75H11.2665C10.9167 15.75 10.6332 15.4702 10.6332 15.125Z" fill="black"/>
<path fill-rule="evenodd" clip-rule="evenodd" d="M10.6332 18.25C10.6332 17.9048 10.9167 17.625 11.2665 17.625H16.3332C16.683 17.625 16.9665 17.9048 16.9665 18.25C16.9665 18.5952 16.683 18.875 16.3332 18.875H11.2665C10.9167 18.875 10.6332 18.5952 10.6332 18.25Z" fill="black"/>
<path fill-rule="evenodd" clip-rule="evenodd" d="M3.66651 5.75C3.66651 5.40482 3.95006 5.125 4.29984 5.125H6.83318C7.18296 5.125 7.46651 5.40482 7.46651 5.75C7.46651 6.09518 7.18296 6.375 6.83318 6.375H4.29984C3.95006 6.375 3.66651 6.09518 3.66651 5.75Z" fill="black"/>
<path fill-rule="evenodd" clip-rule="evenodd" d="M3.6895 17C3.6895 16.6548 3.97305 16.375 4.32283 16.375H6.85617C7.20595 16.375 7.4895 16.6548 7.4895 17C7.4895 17.3452 7.20595 17.625 6.85617 17.625H4.32283C3.97305 17.625 3.6895 17.3452 3.6895 17Z" fill="black"/>
<path fill-rule="evenodd" clip-rule="evenodd" d="M3.66651 8.25C3.66651 7.90482 3.95006 7.625 4.29984 7.625H6.83318C7.18296 7.625 7.46651 7.90482 7.46651 8.25C7.46651 8.59518 7.18296 8.875 6.83318 8.875H4.29984C3.95006 8.875 3.66651 8.59518 3.66651 8.25Z" fill="black"/>
<path fill-rule="evenodd" clip-rule="evenodd" d="M3.6665 19.5C3.6665 19.1548 3.95006 18.875 4.29984 18.875H6.83317C7.18295 18.875 7.4665 19.1548 7.4665 19.5C7.4665 19.8452 7.18295 20.125 6.83317 20.125H4.29984C3.95006 20.125 3.6665 19.8452 3.6665 19.5Z" fill="black"/>
</svg>
