<svg width="24" height="24" viewBox="0 0 24 24" fill="none" xmlns="http://www.w3.org/2000/svg">
<path fill-rule="evenodd" clip-rule="evenodd" d="M3.99997 4.14286C3.99997 2.95939 4.9768 2 6.18179 2H12C12.1929 2 12.3778 2.07525 12.5142 2.20921L19.787 9.35207C19.9233 9.48602 20 9.6677 20 9.85714V19.8571C20 21.0406 19.0231 22 17.8182 22H6.18179C4.9768 22 3.99997 21.0406 3.99997 19.8571V4.14286ZM6.18179 3.42857C5.78013 3.42857 5.45451 3.74837 5.45451 4.14286V19.8571C5.45451 20.2516 5.78013 20.5714 6.18179 20.5714H17.8182C18.2198 20.5714 18.5454 20.2516 18.5454 19.8571V10.5036L13.2374 9.98224C12.1221 9.8727 11.2727 8.95091 11.2727 7.85002V3.42857H6.18179ZM12.7272 4.43872L17.3178 8.94729L13.3821 8.56076C13.0104 8.52424 12.7272 8.21698 12.7272 7.85002V4.43872Z" fill="black"/>
<path fill-rule="evenodd" clip-rule="evenodd" d="M6.29605 12C6.29605 11.7041 6.54025 11.4643 6.8415 11.4643H16.3636C16.6648 11.4643 16.909 11.7041 16.909 12C16.909 12.2959 16.6648 12.5357 16.3636 12.5357H6.8415C6.54025 12.5357 6.29605 12.2959 6.29605 12Z" fill="black"/>
<path fill-rule="evenodd" clip-rule="evenodd" d="M6.36361 14.1429C6.36361 13.847 6.60781 13.6071 6.90906 13.6071H12C12.3012 13.6071 12.5454 13.847 12.5454 14.1429C12.5454 14.4387 12.3012 14.6786 12 14.6786H6.90906C6.60781 14.6786 6.36361 14.4387 6.36361 14.1429Z" fill="black"/>
<path fill-rule="evenodd" clip-rule="evenodd" d="M6.36361 16.2857C6.36361 15.9898 6.60781 15.75 6.90906 15.75H14.9091C15.2103 15.75 15.4545 15.9898 15.4545 16.2857C15.4545 16.5816 15.2103 16.8214 14.9091 16.8214H6.90906C6.60781 16.8214 6.36361 16.5816 6.36361 16.2857Z" fill="black"/>
</svg>
