<svg width="19" height="22" viewBox="0 0 19 22" fill="none" xmlns="http://www.w3.org/2000/svg">
<path fill-rule="evenodd" clip-rule="evenodd" d="M18.6667 1.426C18.6667 0.488999 17.6617 -0.137002 16.8157 0.327999C15.6787 0.951999 12.3127 2.77 10.2977 3.571C7.95266 4.502 5.93366 4.852 3.61966 4.96C2.01666 5.034 0.666656 6.329 0.666656 8V12C0.666656 13.671 2.01666 14.966 3.61966 15.04C3.89299 15.0533 4.16299 15.0697 4.42966 15.089L3.68566 18.804C3.63367 19.0642 3.68718 19.3343 3.83439 19.5551C3.98161 19.7758 4.21048 19.929 4.47066 19.981C4.73083 20.033 5.00101 19.9795 5.22174 19.8323C5.44247 19.685 5.59567 19.4562 5.64766 19.196L6.42066 15.328C7.68366 15.543 8.93566 15.888 10.2977 16.429C12.3127 17.23 15.6777 19.049 16.8157 19.672C17.6617 20.137 18.6667 19.511 18.6667 18.574V1.426ZM6.66666 13.342C8.08466 13.577 9.49966 13.96 11.0367 14.571C12.6887 15.227 15.1227 16.49 16.6667 17.317V2.683C15.1227 3.51 12.6887 4.773 11.0367 5.429C9.49966 6.039 8.08466 6.423 6.66666 6.659V13.342ZM4.66666 6.899C4.35199 6.923 4.03399 6.94267 3.71266 6.958C3.10966 6.986 2.66666 7.462 2.66666 8V12C2.66666 12.538 3.10966 13.014 3.71266 13.042C4.03466 13.0567 4.35266 13.0767 4.66666 13.102V6.899Z" fill="black"/>
</svg>
