<svg width="24" height="24" viewBox="0 0 24 24" fill="none" xmlns="http://www.w3.org/2000/svg">
<path fill-rule="evenodd" clip-rule="evenodd" d="M17.4235 5.16783C15.7275 5.2578 13.6689 5.61721 12.05 6.64752C10.1153 7.87883 7.87003 7.44219 6.20537 6.78297C5.36043 6.44837 4.63128 6.0435 4.11417 5.72329C4.11111 5.72139 4.10806 5.7195 4.10502 5.71762V7.42852C4.10502 7.74411 3.86938 7.99995 3.5787 7.99995C3.28803 7.99995 3.05239 7.74411 3.05239 7.42852V4.68868C3.05239 4.47488 3.16231 4.27897 3.33729 4.18091C3.51227 4.08284 3.72303 4.09903 3.88355 4.22286L3.5787 4.68868C3.88355 4.22286 3.88365 4.22294 3.88355 4.22286C3.88344 4.22278 3.88352 4.22284 3.88355 4.22286L3.88488 4.22388L3.89295 4.23L3.9288 4.25673C3.96127 4.2807 4.0106 4.31655 4.07532 4.36197C4.20481 4.45287 4.39551 4.58182 4.63568 4.73055C5.11722 5.02874 5.79158 5.4026 6.56607 5.70931C8.14028 6.3327 9.99759 6.629 11.5177 5.66157C13.3536 4.49314 15.6135 4.11963 17.3722 4.02634C18.2587 3.97932 19.0337 4.00281 19.5879 4.03807C19.8653 4.05572 20.088 4.07637 20.2426 4.09276C20.3199 4.10096 20.3801 4.1081 20.4217 4.11328L20.4699 4.11946L20.4831 4.12124L20.4869 4.12177L20.4881 4.12194C20.4882 4.12196 20.4888 4.12204 20.4208 4.68868L20.4881 4.12194C20.7503 4.15901 20.9471 4.40162 20.9471 4.68868V6.85712C20.9471 7.17271 20.7115 7.42855 20.4208 7.42855C20.1301 7.42855 19.8945 7.17271 19.8945 6.85712V5.20659C19.7879 5.19731 19.6645 5.18776 19.5263 5.17897C19.0009 5.14554 18.2645 5.12323 17.4235 5.16783Z" fill="black"/>
<path fill-rule="evenodd" clip-rule="evenodd" d="M11.9998 16C13.1625 16 14.105 14.9766 14.105 13.7143C14.105 12.4519 13.1625 11.4286 11.9998 11.4286C10.8371 11.4286 9.89449 12.4519 9.89449 13.7143C9.89449 14.9766 10.8371 16 11.9998 16ZM11.9998 15.1492C11.2699 15.1492 10.6782 14.5067 10.6782 13.7143C10.6782 12.9218 11.2699 12.2794 11.9998 12.2794C12.7297 12.2794 13.3214 12.9218 13.3214 13.7143C13.3214 14.5067 12.7297 15.1492 11.9998 15.1492Z" fill="black"/>
<path fill-rule="evenodd" clip-rule="evenodd" d="M8.31555 13.7143C8.31555 14.0299 8.07991 14.2857 7.78923 14.2857H5.68397C5.39329 14.2857 5.15765 14.0299 5.15765 13.7143C5.15765 13.3987 5.39329 13.1429 5.68397 13.1429H7.78923C8.07991 13.1429 8.31555 13.3987 8.31555 13.7143Z" fill="black"/>
<path fill-rule="evenodd" clip-rule="evenodd" d="M18.8419 12.5714C18.8419 12.887 18.6062 13.1429 18.3155 13.1429H16.2103C15.9196 13.1429 15.684 12.887 15.684 12.5714C15.684 12.2558 15.9196 12 16.2103 12H18.3155C18.6062 12 18.8419 12.2558 18.8419 12.5714Z" fill="black"/>
<path fill-rule="evenodd" clip-rule="evenodd" d="M18.9314 16.51C18.9754 16.2815 19.0483 16.0464 19.1188 15.8219C19.2227 15.4914 19.4171 15.2031 19.6761 14.9958C19.935 14.7885 20.246 14.672 20.5676 14.662C20.5965 14.661 20.6251 14.6601 20.6536 14.6591C20.8513 14.6525 21.0406 14.6461 21.2233 14.6616C21.289 14.6671 21.3469 14.6751 21.3974 14.685L21.3971 16.5826L18.9184 16.5826C18.9223 16.5593 18.9266 16.5351 18.9314 16.51ZM18.4038 17.1541L21.9233 17.154L21.9238 14.2938C21.5871 14.0555 21.0537 14.0737 20.6351 14.088C20.607 14.089 20.5794 14.0899 20.5524 14.0908C20.1237 14.1042 19.7089 14.2595 19.3637 14.5359C19.0185 14.8123 18.7592 15.1966 18.6207 15.6374C18.4822 16.0782 18.2862 16.7062 18.4038 17.1541Z" fill="black"/>
<path fill-rule="evenodd" clip-rule="evenodd" d="M3.05239 11.0096C3.27475 11.0567 3.51669 11.0591 3.73223 11.0133C4.04794 10.9462 4.33724 10.776 4.56141 10.5255C4.78558 10.275 4.93391 9.9561 4.98656 9.61153C4.99128 9.58062 4.99603 9.54992 5.00076 9.5194C5.03353 9.30762 5.0649 9.10489 5.0755 8.90621C5.08155 8.79263 5.07928 8.69976 5.07127 8.62502L3.05239 7.7136V11.0096ZM2.52607 11.4286V6.85714L5.50578 8.20232C5.67776 8.59674 5.58907 9.16804 5.51947 9.61642C5.51479 9.64654 5.5102 9.67612 5.50578 9.70504C5.43558 10.1645 5.2378 10.5897 4.93891 10.9237C4.64003 11.2577 4.25429 11.4846 3.83334 11.5741C3.41239 11.6636 2.91891 11.6156 2.52607 11.4286Z" fill="black"/>
<path fill-rule="evenodd" clip-rule="evenodd" d="M18.0955 7.45369C16.1784 7.54408 13.8412 7.90549 12.0001 8.94705C9.86544 10.1547 7.38457 9.73123 5.52164 9.07546C4.57808 8.74331 3.76282 8.34102 3.18382 8.02231C3.13858 7.99741 3.09476 7.973 3.05239 7.94916V16.9345C3.19808 17.0249 3.40421 17.148 3.65981 17.2887C4.2043 17.5884 4.96798 17.9648 5.84629 18.274C7.62709 18.9009 9.7616 19.2104 11.5136 18.2192C13.5592 17.062 16.0802 16.6905 18.0498 16.5976C19.0417 16.5509 19.9091 16.5742 20.5292 16.6093C20.6845 16.6181 20.8244 16.6276 20.9471 16.637V7.49709C20.8142 7.4864 20.6555 7.47513 20.4744 7.46489C19.8799 7.43126 19.0469 7.40883 18.0955 7.45369ZM21.4734 6.97439L21.534 6.40676C21.7995 6.44013 21.9998 6.68423 21.9998 6.97439V17.2601C21.9998 17.4231 21.9356 17.5784 21.8235 17.6868C21.7115 17.7952 21.5622 17.8465 21.4131 17.8278M21.4131 17.8278L21.4104 17.8274L21.3996 17.8261L21.3536 17.8209C21.3125 17.8164 21.2506 17.8098 21.1698 17.8022C21.0082 17.787 20.7714 17.7674 20.4744 17.7506C19.8799 17.717 19.0469 17.6946 18.0955 17.7394C16.1784 17.8298 13.8412 18.1912 12 19.2327C9.86544 20.4403 7.38457 20.0169 5.52164 19.3612C4.57809 19.029 3.76282 18.6267 3.18383 18.308C2.89382 18.1484 2.66177 18.009 2.50105 17.9087C2.42067 17.8586 2.35803 17.8181 2.31482 17.7898C2.29322 17.7756 2.27646 17.7645 2.26476 17.7566L2.25102 17.7473L2.24704 17.7446L2.24579 17.7438C2.24579 17.7438 2.24502 17.7433 2.52607 17.2601L2.24579 17.7438C2.0931 17.6391 1.99976 17.4562 1.99976 17.2601V6.97439C1.99976 6.76618 2.10407 6.57445 2.27202 6.47394C2.43997 6.37344 2.64499 6.38008 2.80713 6.49126L2.52607 6.97439C2.80713 6.49126 2.80713 6.49126 2.80713 6.49126L2.8089 6.49247L2.81829 6.4988L2.85925 6.52595C2.89623 6.55021 2.95221 6.58637 3.02554 6.63212C3.17226 6.72367 3.38809 6.8534 3.65982 7.00298C4.20431 7.30269 4.96799 7.67914 5.84629 7.98831C7.62709 8.61518 9.7616 8.9247 11.5136 7.93353C13.5592 6.77632 16.0802 6.40477 18.0498 6.31191C19.0417 6.26514 19.9091 6.28851 20.5292 6.32358C20.8394 6.34113 21.0884 6.36165 21.2609 6.37791C21.3471 6.38604 21.4143 6.39311 21.4604 6.39822L21.5136 6.4043L21.528 6.40602L21.5321 6.40652L21.534 6.40676C21.534 6.40676 21.534 6.40676 21.4734 6.97439" fill="black"/>
</svg>
