<svg width="16" height="17" viewBox="0 0 16 17" fill="none" xmlns="http://www.w3.org/2000/svg">
<mask id="path-1-inside-1_226_35" fill="white">
<path fill-rule="evenodd" clip-rule="evenodd" d="M6.99995 0.608521C4.23853 0.608521 1.99995 2.8471 1.99995 5.60852V9.85994C1.99995 9.95286 1.987 10.0453 1.96148 10.1347L0.364158 15.7253C0.181639 16.3641 0.661303 17 1.32568 17H14.6742C15.3386 17 15.8183 16.3641 15.6357 15.7253L14.0384 10.1347C14.0129 10.0453 14 9.95286 14 9.85994V5.60852C14 2.8471 11.7614 0.608521 8.99995 0.608521H6.99995Z"/>
</mask>
<path d="M14.0384 10.1347L12.5961 10.5467L14.0384 10.1347ZM1.96148 10.1347L0.51919 9.72258L1.96148 10.1347ZM3.49995 5.60852C3.49995 3.67552 5.06696 2.10852 6.99995 2.10852V-0.891479C3.4101 -0.891479 0.499952 2.01867 0.499952 5.60852H3.49995ZM3.49995 9.85994V5.60852H0.499952V9.85994H3.49995ZM1.80644 16.1374L3.40376 10.5467L0.51919 9.72258L-1.07813 15.3132L1.80644 16.1374ZM14.6742 15.5H1.32568V18.5H14.6742V15.5ZM12.5961 10.5467L14.1935 16.1374L17.078 15.3132L15.4807 9.72258L12.5961 10.5467ZM12.5 5.60852V9.85994H15.5V5.60852H12.5ZM8.99995 2.10852C10.9329 2.10852 12.5 3.67552 12.5 5.60852H15.5C15.5 2.01867 12.5898 -0.891479 8.99995 -0.891479V2.10852ZM6.99995 2.10852H8.99995V-0.891479H6.99995V2.10852ZM15.4807 9.72258C15.4935 9.76725 15.5 9.81349 15.5 9.85994H12.5C12.5 10.0922 12.5323 10.3234 12.5961 10.5467L15.4807 9.72258ZM14.6742 18.5C16.3352 18.5 17.5343 16.9102 17.078 15.3132L14.1935 16.1374C14.1022 15.818 14.342 15.5 14.6742 15.5V18.5ZM-1.07813 15.3132C-1.53443 16.9102 -0.335264 18.5 1.32568 18.5V15.5C1.65787 15.5 1.8977 15.818 1.80644 16.1374L-1.07813 15.3132ZM0.499952 9.85994C0.499952 9.81349 0.506427 9.76725 0.51919 9.72258L3.40376 10.5467C3.46758 10.3234 3.49995 10.0922 3.49995 9.85994H0.499952Z" fill="black" mask="url(#path-1-inside-1_226_35)"/>
</svg>
