<svg width="32" height="22" viewBox="0 0 32 22" fill="none" xmlns="http://www.w3.org/2000/svg">
<path d="M1.33334 20.1667V1.83333L14.1667 20.1667V1.83333M21.5 20.1667H30.6667M21.5 7.33333C21.5 8.79202 21.9829 10.191 22.8424 11.2224C23.702 12.2539 24.8678 12.8333 26.0833 12.8333C27.2989 12.8333 28.4647 12.2539 29.3242 11.2224C30.1838 10.191 30.6667 8.79202 30.6667 7.33333C30.6667 5.87464 30.1838 4.47569 29.3242 3.44424C28.4647 2.41279 27.2989 1.83333 26.0833 1.83333C24.8678 1.83333 23.702 2.41279 22.8424 3.44424C21.9829 4.47569 21.5 5.87464 21.5 7.33333Z" stroke="black" stroke-width="2" stroke-linecap="round" stroke-linejoin="round"/>
</svg>
