<svg width="24" height="24" viewBox="0 0 24 24" fill="none" xmlns="http://www.w3.org/2000/svg">
<g clip-path="url(#clip0_4_1544)">
<rect width="24" height="24" rx="1" fill="white"/>
<path d="M10.1917 3.98984C11.0598 2.71432 12.9402 2.71432 13.8083 3.98984C14.5507 5.08066 15.8194 5.69163 17.1351 5.59197C18.6737 5.47542 19.846 6.94552 19.39 8.41953C19.0001 9.68009 19.3134 11.0529 20.2117 12.0195C21.2621 13.1497 20.8437 14.9828 19.4069 15.5454C18.1783 16.0265 17.3003 17.1274 17.1047 18.4323C16.876 19.9582 15.1819 20.774 13.8463 20.0015C12.7041 19.3408 11.2959 19.3408 10.1537 20.0015C8.81815 20.774 7.12404 19.9582 6.89531 18.4323C6.6997 17.1274 5.82173 16.0265 4.59305 15.5454C3.15633 14.9828 2.73792 13.1497 3.78829 12.0195C4.68655 11.0529 4.9999 9.68009 4.60995 8.41953C4.15398 6.94552 5.32634 5.47542 6.86486 5.59197C8.18058 5.69163 9.44929 5.08066 10.1917 3.98984Z" stroke="black" stroke-width="1.5"/>
<circle cx="12" cy="12" r="2.25" stroke="black" stroke-width="1.5"/>
</g>
<defs>
<clipPath id="clip0_4_1544">
<rect width="24" height="24" rx="1" fill="white"/>
</clipPath>
</defs>
</svg>
