<svg width="25" height="24" viewBox="0 0 25 24" fill="none" xmlns="http://www.w3.org/2000/svg">
<mask id="path-1-outside-1_4_812" maskUnits="userSpaceOnUse" x="1.33331" y="1" width="22" height="22" fill="black">
<rect fill="white" x="1.33331" y="1" width="22" height="22"/>
<path fill-rule="evenodd" clip-rule="evenodd" d="M3.46011 2.16527C3.5737 2.05038 3.7533 2.03684 3.88249 2.13341L6.14793 3.82693C6.21778 3.87914 6.26402 3.95749 6.2763 4.04446L6.36148 4.64749C6.36479 4.67093 6.37553 4.69265 6.39208 4.70938L10.2354 8.59649C10.2777 8.63922 10.2777 8.70849 10.2354 8.75122C10.1932 8.79395 10.1247 8.79395 10.0824 8.75122L6.23909 4.86411C6.18944 4.81389 6.15723 4.74874 6.1473 4.67844L6.06212 4.0754C6.05803 4.04642 6.04262 4.0203 6.01933 4.00289L3.75389 2.30937C3.71083 2.27718 3.65096 2.2817 3.6131 2.31999L2.58135 3.36348C2.54287 3.40241 2.53897 3.46419 2.57225 3.50774L4.22988 5.67733C4.25036 5.70414 4.28197 5.71984 4.31547 5.71984H4.87321C4.9625 5.71984 5.04784 5.75705 5.10915 5.8227L8.72312 9.69282C8.76414 9.73674 8.76218 9.80599 8.71875 9.84748C8.67531 9.88897 8.60685 9.88699 8.56582 9.84306L4.95186 5.97294C4.93142 5.95106 4.90298 5.93866 4.87321 5.93866H4.31547C4.21497 5.93866 4.12013 5.89156 4.05868 5.81113L2.40105 3.64154C2.30121 3.51087 2.31291 3.32553 2.42837 3.20876L3.46011 2.16527Z"/>
<path fill-rule="evenodd" clip-rule="evenodd" d="M15.9137 11.7715L15.7606 11.9261L20.9287 17.1608C21.9733 18.2189 21.9721 19.9331 20.9259 20.9896C19.8797 22.0462 18.1848 22.0449 17.1402 20.9868L11.9721 15.752L11.819 15.9066L16.9871 21.1414C18.1161 22.285 19.948 22.2864 21.0787 21.1445C22.2095 20.0026 22.2109 18.1498 21.0818 17.0062L15.9137 11.7715Z"/>
<path fill-rule="evenodd" clip-rule="evenodd" d="M15.7606 11.9261L15.9137 11.7715L21.0818 17.0062C22.2109 18.1498 22.2095 20.0026 21.0787 21.1445C19.948 22.2864 18.1161 22.285 16.9871 21.1414L11.819 15.9066L11.9721 15.752L17.1402 20.9868C17.2707 21.119 17.4115 21.2348 17.5598 21.334C18.5984 22.0287 20.0105 21.9141 20.9259 20.9896C21.9721 19.9331 21.9733 18.2189 20.9287 17.1608L15.7606 11.9261ZM19.58 18.464L15.315 14.1444C15.014 13.8396 14.5257 13.8392 14.2243 14.1436C13.9229 14.448 13.9225 14.9419 14.2235 15.2468L18.4885 19.5663C18.7895 19.8712 19.2778 19.8715 19.5792 19.5671C19.8806 19.2627 19.881 18.7688 19.58 18.464ZM14.0714 13.9888C13.6854 14.3786 13.685 15.011 14.0704 15.4014L18.3354 19.721C18.7208 20.1113 19.3462 20.1118 19.7321 19.722C20.1181 19.3322 20.1185 18.6997 19.7331 18.3094L15.4681 13.9898C15.0827 13.5994 14.4573 13.599 14.0714 13.9888Z"/>
<path fill-rule="evenodd" clip-rule="evenodd" d="M15.6396 2.79588C16.6688 2.04652 18.0258 1.92199 19.0555 2.03742C19.3171 2.06675 19.415 2.37657 19.2499 2.56531L17.1517 4.96415C17.1137 5.00763 17.1159 5.07356 17.1566 5.1144L19.0637 7.02362C19.1054 7.06539 19.1724 7.06588 19.2148 7.02473L21.6265 4.67934C21.7977 4.51289 22.0896 4.58255 22.1527 4.82379C22.6539 6.74248 22.0621 8.31195 20.9938 9.22818C19.9279 10.1423 18.3937 10.3995 17.0309 9.7074C16.9834 9.68328 16.9287 9.69243 16.8955 9.72554L9.19139 17.4107C9.1686 17.4334 9.15545 17.471 9.15986 17.5089C9.28323 18.5672 9.08783 19.3215 8.6977 19.8448C8.30828 20.3671 7.737 20.6428 7.14041 20.7693C6.54413 20.8958 5.91434 20.8752 5.39283 20.7983C4.87545 20.7219 4.44818 20.5875 4.26176 20.4743C3.83046 20.2126 3.48645 19.7064 3.28121 19.1173C3.07527 18.5261 3.00375 17.8371 3.13097 17.1947C3.25847 16.551 3.58671 15.9505 4.18216 15.5492C4.77692 15.1483 5.62478 14.9551 6.77512 15.098C6.81289 15.1027 6.85056 15.089 6.87322 15.0651L14.1882 7.34514C14.21 7.32207 14.2218 7.28609 14.2173 7.25038C13.921 4.9261 14.6008 3.55224 15.6396 2.79588ZM15.766 2.97346C14.807 3.67169 14.1431 4.95683 14.4319 7.2224C14.4443 7.31969 14.4143 7.4228 14.3444 7.49654L7.02943 15.2165C6.95595 15.294 6.84887 15.3276 6.74874 15.3152C5.6336 15.1766 4.84198 15.3674 4.30215 15.7312C3.763 16.0946 3.46154 16.6397 3.34311 17.2377C3.22439 17.8371 3.29071 18.4861 3.48527 19.0446C3.68052 19.605 3.99968 20.0601 4.37308 20.2867C4.52214 20.3772 4.91505 20.5066 5.42408 20.5817C5.92898 20.6563 6.53185 20.6748 7.09601 20.5552C7.65986 20.4356 8.17681 20.18 8.52495 19.713C8.87238 19.247 9.06387 18.5542 8.945 17.5345C8.93345 17.4354 8.96518 17.329 9.03947 17.2549L16.7436 9.56975C16.8474 9.46622 17.0035 9.44866 17.1279 9.51185C18.4094 10.1626 19.8508 9.9215 20.8539 9.06128C21.8544 8.20322 22.4248 6.72236 21.9435 4.87969C21.925 4.80881 21.8354 4.77976 21.7765 4.83707L19.3647 7.18246C19.2378 7.30591 19.0366 7.30444 18.9115 7.17913L17.0044 5.26991C16.8821 5.14741 16.8756 4.94959 16.9897 4.81917L19.0878 2.42033C19.1461 2.3537 19.1051 2.26314 19.0317 2.25491C18.0297 2.14258 16.7347 2.26823 15.766 2.97346Z"/>
<path fill-rule="evenodd" clip-rule="evenodd" d="M5.94006 18.9582C6.47775 18.9582 6.91364 18.5174 6.91364 17.9735C6.91364 17.4297 6.47775 16.9889 5.94006 16.9889C5.40236 16.9889 4.96647 17.4297 4.96647 17.9735C4.96647 18.5174 5.40236 18.9582 5.94006 18.9582ZM5.94006 19.177C6.59724 19.177 7.13 18.6382 7.13 17.9735C7.13 17.3089 6.59724 16.77 5.94006 16.77C5.28287 16.77 4.75012 17.3089 4.75012 17.9735C4.75012 18.6382 5.28287 19.177 5.94006 19.177Z"/>
</mask>
<path fill-rule="evenodd" clip-rule="evenodd" d="M3.46011 2.16527C3.5737 2.05038 3.7533 2.03684 3.88249 2.13341L6.14793 3.82693C6.21778 3.87914 6.26402 3.95749 6.2763 4.04446L6.36148 4.64749C6.36479 4.67093 6.37553 4.69265 6.39208 4.70938L10.2354 8.59649C10.2777 8.63922 10.2777 8.70849 10.2354 8.75122C10.1932 8.79395 10.1247 8.79395 10.0824 8.75122L6.23909 4.86411C6.18944 4.81389 6.15723 4.74874 6.1473 4.67844L6.06212 4.0754C6.05803 4.04642 6.04262 4.0203 6.01933 4.00289L3.75389 2.30937C3.71083 2.27718 3.65096 2.2817 3.6131 2.31999L2.58135 3.36348C2.54287 3.40241 2.53897 3.46419 2.57225 3.50774L4.22988 5.67733C4.25036 5.70414 4.28197 5.71984 4.31547 5.71984H4.87321C4.9625 5.71984 5.04784 5.75705 5.10915 5.8227L8.72312 9.69282C8.76414 9.73674 8.76218 9.80599 8.71875 9.84748C8.67531 9.88897 8.60685 9.88699 8.56582 9.84306L4.95186 5.97294C4.93142 5.95106 4.90298 5.93866 4.87321 5.93866H4.31547C4.21497 5.93866 4.12013 5.89156 4.05868 5.81113L2.40105 3.64154C2.30121 3.51087 2.31291 3.32553 2.42837 3.20876L3.46011 2.16527Z" fill="black"/>
<path fill-rule="evenodd" clip-rule="evenodd" d="M15.9137 11.7715L15.7606 11.9261L20.9287 17.1608C21.9733 18.2189 21.9721 19.9331 20.9259 20.9896C19.8797 22.0462 18.1848 22.0449 17.1402 20.9868L11.9721 15.752L11.819 15.9066L16.9871 21.1414C18.1161 22.285 19.948 22.2864 21.0787 21.1445C22.2095 20.0026 22.2109 18.1498 21.0818 17.0062L15.9137 11.7715Z" fill="black"/>
<path fill-rule="evenodd" clip-rule="evenodd" d="M15.7606 11.9261L15.9137 11.7715L21.0818 17.0062C22.2109 18.1498 22.2095 20.0026 21.0787 21.1445C19.948 22.2864 18.1161 22.285 16.9871 21.1414L11.819 15.9066L11.9721 15.752L17.1402 20.9868C17.2707 21.119 17.4115 21.2348 17.5598 21.334C18.5984 22.0287 20.0105 21.9141 20.9259 20.9896C21.9721 19.9331 21.9733 18.2189 20.9287 17.1608L15.7606 11.9261ZM19.58 18.464L15.315 14.1444C15.014 13.8396 14.5257 13.8392 14.2243 14.1436C13.9229 14.448 13.9225 14.9419 14.2235 15.2468L18.4885 19.5663C18.7895 19.8712 19.2778 19.8715 19.5792 19.5671C19.8806 19.2627 19.881 18.7688 19.58 18.464ZM14.0714 13.9888C13.6854 14.3786 13.685 15.011 14.0704 15.4014L18.3354 19.721C18.7208 20.1113 19.3462 20.1118 19.7321 19.722C20.1181 19.3322 20.1185 18.6997 19.7331 18.3094L15.4681 13.9898C15.0827 13.5994 14.4573 13.599 14.0714 13.9888Z" fill="black"/>
<path fill-rule="evenodd" clip-rule="evenodd" d="M15.6396 2.79588C16.6688 2.04652 18.0258 1.92199 19.0555 2.03742C19.3171 2.06675 19.415 2.37657 19.2499 2.56531L17.1517 4.96415C17.1137 5.00763 17.1159 5.07356 17.1566 5.1144L19.0637 7.02362C19.1054 7.06539 19.1724 7.06588 19.2148 7.02473L21.6265 4.67934C21.7977 4.51289 22.0896 4.58255 22.1527 4.82379C22.6539 6.74248 22.0621 8.31195 20.9938 9.22818C19.9279 10.1423 18.3937 10.3995 17.0309 9.7074C16.9834 9.68328 16.9287 9.69243 16.8955 9.72554L9.19139 17.4107C9.1686 17.4334 9.15545 17.471 9.15986 17.5089C9.28323 18.5672 9.08783 19.3215 8.6977 19.8448C8.30828 20.3671 7.737 20.6428 7.14041 20.7693C6.54413 20.8958 5.91434 20.8752 5.39283 20.7983C4.87545 20.7219 4.44818 20.5875 4.26176 20.4743C3.83046 20.2126 3.48645 19.7064 3.28121 19.1173C3.07527 18.5261 3.00375 17.8371 3.13097 17.1947C3.25847 16.551 3.58671 15.9505 4.18216 15.5492C4.77692 15.1483 5.62478 14.9551 6.77512 15.098C6.81289 15.1027 6.85056 15.089 6.87322 15.0651L14.1882 7.34514C14.21 7.32207 14.2218 7.28609 14.2173 7.25038C13.921 4.9261 14.6008 3.55224 15.6396 2.79588ZM15.766 2.97346C14.807 3.67169 14.1431 4.95683 14.4319 7.2224C14.4443 7.31969 14.4143 7.4228 14.3444 7.49654L7.02943 15.2165C6.95595 15.294 6.84887 15.3276 6.74874 15.3152C5.6336 15.1766 4.84198 15.3674 4.30215 15.7312C3.763 16.0946 3.46154 16.6397 3.34311 17.2377C3.22439 17.8371 3.29071 18.4861 3.48527 19.0446C3.68052 19.605 3.99968 20.0601 4.37308 20.2867C4.52214 20.3772 4.91505 20.5066 5.42408 20.5817C5.92898 20.6563 6.53185 20.6748 7.09601 20.5552C7.65986 20.4356 8.17681 20.18 8.52495 19.713C8.87238 19.247 9.06387 18.5542 8.945 17.5345C8.93345 17.4354 8.96518 17.329 9.03947 17.2549L16.7436 9.56975C16.8474 9.46622 17.0035 9.44866 17.1279 9.51185C18.4094 10.1626 19.8508 9.9215 20.8539 9.06128C21.8544 8.20322 22.4248 6.72236 21.9435 4.87969C21.925 4.80881 21.8354 4.77976 21.7765 4.83707L19.3647 7.18246C19.2378 7.30591 19.0366 7.30444 18.9115 7.17913L17.0044 5.26991C16.8821 5.14741 16.8756 4.94959 16.9897 4.81917L19.0878 2.42033C19.1461 2.3537 19.1051 2.26314 19.0317 2.25491C18.0297 2.14258 16.7347 2.26823 15.766 2.97346Z" fill="black"/>
<path fill-rule="evenodd" clip-rule="evenodd" d="M5.94006 18.9582C6.47775 18.9582 6.91364 18.5174 6.91364 17.9735C6.91364 17.4297 6.47775 16.9889 5.94006 16.9889C5.40236 16.9889 4.96647 17.4297 4.96647 17.9735C4.96647 18.5174 5.40236 18.9582 5.94006 18.9582ZM5.94006 19.177C6.59724 19.177 7.13 18.6382 7.13 17.9735C7.13 17.3089 6.59724 16.77 5.94006 16.77C5.28287 16.77 4.75012 17.3089 4.75012 17.9735C4.75012 18.6382 5.28287 19.177 5.94006 19.177Z" fill="black"/>
<path d="M15.7606 11.9261L15.583 11.7502L15.4091 11.9258L15.5827 12.1017L15.7606 11.9261ZM15.9137 11.7715L16.0916 11.5958L15.914 11.4159L15.7361 11.5955L15.9137 11.7715ZM20.9287 17.1608L21.1066 16.9852L20.9287 17.1608ZM11.9721 15.752L12.15 15.5764L11.9723 15.3964L11.7944 15.5761L11.9721 15.752ZM11.819 15.9066L11.6413 15.7307L11.4674 15.9063L11.6411 16.0823L11.819 15.9066ZM16.9871 21.1414L17.165 20.9657L16.9871 21.1414ZM21.0787 21.1445L21.2564 21.3204L21.0787 21.1445ZM21.0818 17.0062L21.2597 16.8306L21.0818 17.0062ZM15.9383 12.102L16.0914 11.9474L15.7361 11.5955L15.583 11.7502L15.9383 12.102ZM21.1066 16.9852L15.9385 11.7504L15.5827 12.1017L20.7508 17.3365L21.1066 16.9852ZM21.1035 21.1656C22.2461 20.0117 22.2475 18.1408 21.1066 16.9852L20.7508 17.3365C21.6992 18.2971 21.698 19.8546 20.7482 20.8137L21.1035 21.1656ZM11.7942 15.9276L16.9623 21.1624L17.3181 20.8111L12.15 15.5764L11.7942 15.9276ZM11.9966 16.0825L12.1497 15.9279L11.7944 15.5761L11.6413 15.7307L11.9966 16.0825ZM17.165 20.9657L11.9969 15.731L11.6411 16.0823L16.8092 21.317L17.165 20.9657ZM20.9011 20.9686C19.8683 22.0116 18.1962 22.0103 17.165 20.9657L16.8092 21.317C18.036 22.5597 20.0277 22.5612 21.2564 21.3204L20.9011 20.9686ZM20.9039 17.1819C21.9367 18.228 21.9355 19.924 20.9011 20.9686L21.2564 21.3204C22.4835 20.0812 22.485 18.0717 21.2597 16.8306L20.9039 17.1819ZM15.7358 11.9471L20.9039 17.1819L21.2597 16.8306L16.0916 11.5958L15.7358 11.9471ZM3.88249 2.13341L4.18186 1.73293L3.88249 2.13341ZM3.46011 2.16527L3.81566 2.51681V2.51681L3.46011 2.16527ZM6.14793 3.82693L5.84856 4.2274L5.84856 4.2274L6.14793 3.82693ZM6.2763 4.04446L6.77139 3.97453L6.77139 3.97453L6.2763 4.04446ZM6.36148 4.64749L5.86639 4.71742L5.86639 4.71743L6.36148 4.64749ZM6.39208 4.70938L6.03653 5.06093L6.03653 5.06093L6.39208 4.70938ZM10.2354 8.59649L10.591 8.24495L10.2354 8.59649ZM10.2354 8.75122L10.591 9.10277L10.591 9.10277L10.2354 8.75122ZM10.0824 8.75122L9.7269 9.10277L9.7269 9.10277L10.0824 8.75122ZM6.23909 4.86411L5.88354 5.21566L5.88354 5.21566L6.23909 4.86411ZM6.1473 4.67844L6.64239 4.60851V4.60851L6.1473 4.67844ZM6.06212 4.0754L5.56704 4.14533L5.56704 4.14533L6.06212 4.0754ZM6.01933 4.00289L6.3187 3.60242L6.3187 3.60242L6.01933 4.00289ZM3.75389 2.30937L3.45452 2.70984L3.75389 2.30937ZM3.6131 2.31999L3.25755 1.96845L3.25755 1.96845L3.6131 2.31999ZM2.58135 3.36348L2.9369 3.71503L2.9369 3.71503L2.58135 3.36348ZM2.57225 3.50774L2.17494 3.8113L2.17494 3.8113L2.57225 3.50774ZM4.22988 5.67733L3.83257 5.98089L3.83257 5.98089L4.22988 5.67733ZM5.10915 5.8227L5.47459 5.48145L5.47459 5.48145L5.10915 5.8227ZM8.72312 9.69282L9.08856 9.35156L9.08856 9.35156L8.72312 9.69282ZM8.71875 9.84748L8.37339 9.48592L8.37338 9.48592L8.71875 9.84748ZM8.56582 9.84306L8.93127 9.50181L8.93126 9.50181L8.56582 9.84306ZM4.95186 5.97294L4.58642 6.3142L4.58642 6.3142L4.95186 5.97294ZM4.05868 5.81113L4.45599 5.50757L4.45599 5.50757L4.05868 5.81113ZM2.40105 3.64154L2.00374 3.94509L2.00374 3.94509L2.40105 3.64154ZM2.42837 3.20876L2.78392 3.5603L2.78392 3.5603L2.42837 3.20876ZM18.3354 19.721L18.6912 19.3697L18.3354 19.721ZM19.7331 18.3094L20.0889 17.9581L19.7331 18.3094ZM15.4681 13.9898L15.1123 14.3411L15.4681 13.9898ZM14.0704 15.4014L13.7146 15.7527L14.0704 15.4014ZM17.5598 21.334L17.2818 21.7496L17.5598 21.334ZM15.315 14.1444L15.6708 13.7931L15.315 14.1444ZM19.58 18.464L19.9358 18.1127V18.1127L19.58 18.464ZM14.2243 14.1436L13.869 13.7918L14.2243 14.1436ZM14.2235 15.2468L14.5793 14.8955L14.2235 15.2468ZM18.4885 19.5663L18.8443 19.2151L18.4885 19.5663ZM19.5792 19.5671L19.9345 19.9189L19.5792 19.5671ZM19.0555 2.03742L18.9998 2.53431H18.9998L19.0555 2.03742ZM15.6396 2.79588L15.3453 2.39167L15.6396 2.79588ZM19.2499 2.56531L19.6262 2.89449L19.2499 2.56531ZM17.1517 4.96415L16.7754 4.63497L16.7754 4.63497L17.1517 4.96415ZM17.1566 5.1144L16.8029 5.46775L16.8029 5.46775L17.1566 5.1144ZM19.0637 7.02362L19.4174 6.67027L19.4174 6.67027L19.0637 7.02362ZM19.2148 7.02473L19.5633 7.38318L19.5633 7.38318L19.2148 7.02473ZM21.6265 4.67934L21.2779 4.32089V4.32089L21.6265 4.67934ZM22.1527 4.82379L22.6364 4.69742V4.69742L22.1527 4.82379ZM20.9938 9.22818L20.6683 8.84863L20.9938 9.22818ZM17.0309 9.7074L16.8045 10.1532L16.8045 10.1532L17.0309 9.7074ZM16.8955 9.72554L16.5424 9.37155L16.5424 9.37155L16.8955 9.72554ZM9.19139 17.4107L9.5445 17.7647L9.54451 17.7647L9.19139 17.4107ZM9.15986 17.5089L9.6565 17.451V17.451L9.15986 17.5089ZM8.6977 19.8448L9.09855 20.1436H9.09855L8.6977 19.8448ZM7.14041 20.7693L7.24415 21.2584H7.24415L7.14041 20.7693ZM5.39283 20.7983L5.31983 21.2929H5.31983L5.39283 20.7983ZM4.26176 20.4743L4.00237 20.9018L4.00237 20.9018L4.26176 20.4743ZM3.28121 19.1173L2.80904 19.2818L3.28121 19.1173ZM3.13097 17.1947L3.62144 17.2919L3.13097 17.1947ZM4.18216 15.5492L3.9027 15.1345H3.9027L4.18216 15.5492ZM6.77512 15.098L6.71347 15.5942H6.71348L6.77512 15.098ZM6.87322 15.0651L7.23616 15.409L7.23617 15.409L6.87322 15.0651ZM14.1882 7.34514L14.5511 7.68905L14.5511 7.68905L14.1882 7.34514ZM14.2173 7.25038L13.7213 7.31359V7.3136L14.2173 7.25038ZM14.4319 7.2224L13.9359 7.28562V7.28562L14.4319 7.2224ZM15.766 2.97346L16.0603 3.37768L15.766 2.97346ZM14.3444 7.49654L14.7073 7.84045L14.3444 7.49654ZM7.02943 15.2165L7.39237 15.5604H7.39237L7.02943 15.2165ZM6.74874 15.3152L6.81038 14.819L6.81038 14.819L6.74874 15.3152ZM4.30215 15.7312L4.5816 16.1458L4.30215 15.7312ZM3.34311 17.2377L3.83358 17.3349L3.34311 17.2377ZM3.48527 19.0446L3.95744 18.8801L3.95744 18.8801L3.48527 19.0446ZM4.37308 20.2867L4.63247 19.8592H4.63247L4.37308 20.2867ZM5.42408 20.5817L5.49708 20.0871L5.49708 20.0871L5.42408 20.5817ZM7.09601 20.5552L6.99227 20.066H6.99227L7.09601 20.5552ZM8.52495 19.713L8.9258 20.0119L8.52495 19.713ZM8.945 17.5345L8.44836 17.5924V17.5924L8.945 17.5345ZM9.03947 17.2549L9.39258 17.6089L9.39259 17.6089L9.03947 17.2549ZM16.7436 9.56975L17.0967 9.92374H17.0967L16.7436 9.56975ZM17.1279 9.51185L17.3543 9.06603L17.1279 9.51185ZM20.8539 9.06128L21.1794 9.44082L20.8539 9.06128ZM21.9435 4.87969L21.4597 5.00606V5.00606L21.9435 4.87969ZM21.7765 4.83707L22.125 5.19552L22.125 5.19552L21.7765 4.83707ZM19.3647 7.18246L19.0161 6.82401L19.0161 6.82401L19.3647 7.18246ZM18.9115 7.17913L18.5577 7.53248L18.9115 7.17913ZM17.0044 5.26991L16.6507 5.62326L17.0044 5.26991ZM16.9897 4.81917L17.366 5.14835V5.14835L16.9897 4.81917ZM19.0878 2.42033L18.7115 2.09115L18.7115 2.09115L19.0878 2.42033ZM19.0317 2.25491L19.0874 1.75802V1.75802L19.0317 2.25491ZM4.18186 1.73293C3.85224 1.48653 3.3932 1.5218 3.10456 1.81372L3.81566 2.51681C3.75421 2.57896 3.65436 2.58714 3.58312 2.53388L4.18186 1.73293ZM6.4473 3.42645L4.18186 1.73293L3.58312 2.53388L5.84856 4.2274L6.4473 3.42645ZM6.77139 3.97453C6.74063 3.75677 6.62465 3.55903 6.4473 3.42645L5.84856 4.2274C5.81091 4.19925 5.78741 4.15822 5.78122 4.11439L6.77139 3.97453ZM6.85656 4.57756L6.77139 3.97453L5.78122 4.11439L5.86639 4.71742L6.85656 4.57756ZM6.74763 4.35784C6.80709 4.41798 6.84493 4.49519 6.85656 4.57756L5.86639 4.71743C5.88465 4.84667 5.94396 4.96731 6.03653 5.06093L6.74763 4.35784ZM10.591 8.24495L6.74762 4.35784L6.03653 5.06093L9.87988 8.94804L10.591 8.24495ZM10.591 9.10277C10.8258 8.86525 10.8258 8.48247 10.591 8.24495L9.87988 8.94804C9.72953 8.79597 9.72953 8.55174 9.87988 8.39967L10.591 9.10277ZM9.7269 9.10277C9.96486 9.34343 10.353 9.34343 10.591 9.10277L9.87989 8.39967C10.0333 8.24446 10.2845 8.24446 10.438 8.39967L9.7269 9.10277ZM5.88354 5.21566L9.7269 9.10277L10.438 8.39967L6.59464 4.51256L5.88354 5.21566ZM5.65222 4.74837C5.67709 4.92448 5.75788 5.08856 5.88354 5.21566L6.59464 4.51256C6.621 4.53923 6.63737 4.57301 6.64239 4.60851L5.65222 4.74837ZM5.56704 4.14533L5.65222 4.74837L6.64239 4.60851L6.55721 4.00547L5.56704 4.14533ZM5.71996 4.40336C5.63575 4.34041 5.58142 4.24714 5.56704 4.14533L6.55721 4.00547C6.53464 3.84569 6.44948 3.70019 6.3187 3.60242L5.71996 4.40336ZM3.45452 2.70984L5.71996 4.40336L6.3187 3.60242L4.05326 1.9089L3.45452 2.70984ZM3.96865 2.67154C3.83147 2.81028 3.61189 2.82748 3.45452 2.70984L4.05326 1.9089C3.80977 1.72688 3.47046 1.75312 3.25755 1.96845L3.96865 2.67154ZM2.9369 3.71503L3.96865 2.67154L3.25755 1.96845L2.2258 3.01194L2.9369 3.71503ZM2.96956 3.20419C3.08738 3.35841 3.07418 3.57618 2.9369 3.71503L2.2258 3.01194C2.01155 3.22863 1.99055 3.56997 2.17494 3.8113L2.96956 3.20419ZM4.62718 5.37378L2.96956 3.20419L2.17494 3.8113L3.83257 5.98089L4.62718 5.37378ZM4.31547 5.21984C4.43909 5.21984 4.55387 5.27782 4.62718 5.37378L3.83257 5.98089C3.94685 6.13047 4.12485 6.21984 4.31547 6.21984V5.21984ZM4.87321 5.21984H4.31547V6.21984H4.87321V5.21984ZM5.47459 5.48145C5.31937 5.31523 5.10199 5.21984 4.87321 5.21984V6.21984C4.82301 6.21984 4.77631 6.19887 4.74371 6.16395L5.47459 5.48145ZM9.08856 9.35156L5.47459 5.48145L4.74371 6.16395L8.35768 10.0341L9.08856 9.35156ZM9.06411 10.209C9.30585 9.97813 9.31634 9.59549 9.08856 9.35156L8.35768 10.0341C8.21194 9.878 8.21851 9.63385 8.37339 9.48592L9.06411 10.209ZM8.20038 10.1843C8.43117 10.4315 8.81917 10.443 9.06411 10.209L8.37338 9.48592C8.53146 9.33493 8.78252 9.34252 8.93127 9.50181L8.20038 10.1843ZM4.58642 6.3142L8.20038 10.1843L8.93126 9.50181L5.3173 5.63169L4.58642 6.3142ZM4.87321 6.43866C4.76348 6.43866 4.65989 6.39288 4.58642 6.3142L5.3173 5.63169C5.20295 5.50924 5.04247 5.43866 4.87321 5.43866V6.43866ZM4.31547 6.43866H4.87321V5.43866H4.31547V6.43866ZM3.66137 6.11468C3.81662 6.31788 4.05785 6.43866 4.31547 6.43866V5.43866C4.37208 5.43866 4.42364 5.46524 4.45599 5.50757L3.66137 6.11468ZM2.00374 3.94509L3.66137 6.11468L4.45599 5.50757L2.79836 3.33798L2.00374 3.94509ZM2.07282 2.85721C1.7816 3.15175 1.7528 3.61665 2.00374 3.94509L2.79836 3.33798C2.84963 3.40509 2.84423 3.4993 2.78392 3.5603L2.07282 2.85721ZM3.10456 1.81372L2.07282 2.85721L2.78392 3.5603L3.81566 2.51681L3.10456 1.81372ZM16.7843 21.3381C18.0245 22.5942 20.0391 22.5958 21.2812 21.3415L20.5706 20.6378C19.7203 21.4965 18.345 21.4955 17.496 20.6355L16.7843 21.3381ZM15.1123 14.3411L19.3773 18.6607L20.0889 17.9581L15.8239 13.6385L15.1123 14.3411ZM18.6912 19.3697L14.4262 15.0501L13.7146 15.7527L17.9796 20.0723L18.6912 19.3697ZM19.3768 19.3702C19.1867 19.5622 18.8811 19.5619 18.6912 19.3697L17.9796 20.0723C18.5606 20.6607 19.5056 20.6614 20.0874 20.0737L19.3768 19.3702ZM19.3773 18.6607C19.5702 18.8561 19.57 19.175 19.3768 19.3702L20.0874 20.0737C20.6661 19.4893 20.6668 18.5433 20.0889 17.9581L19.3773 18.6607ZM14.4267 14.3406C14.6168 14.1486 14.9224 14.1488 15.1123 14.3411L15.8239 13.6385C15.2429 13.0501 14.2979 13.0494 13.7161 13.637L14.4267 14.3406ZM13.7161 13.637C13.1374 14.2215 13.1368 15.1674 13.7146 15.7527L14.4262 15.0501C14.2333 14.8547 14.2335 14.5357 14.4267 14.3406L13.7161 13.637ZM17.8378 20.9184C17.7174 20.8379 17.6028 20.7437 17.496 20.6355L16.7843 21.3381C16.9387 21.4944 17.1055 21.6317 17.2818 21.7496L17.8378 20.9184ZM20.5706 20.6378C19.8265 21.3892 18.6806 21.4821 17.8378 20.9184L17.2818 21.7496C18.5162 22.5752 20.1944 22.439 21.2812 21.3415L20.5706 20.6378ZM14.9592 14.4957L19.2242 18.8153L19.9358 18.1127L15.6708 13.7931L14.9592 14.4957ZM14.5796 14.4954C14.6851 14.3888 14.8538 14.3889 14.9592 14.4957L15.6708 13.7931C15.1742 13.2902 14.3662 13.2896 13.869 13.7918L14.5796 14.4954ZM14.5793 14.8955C14.4708 14.7855 14.4709 14.6052 14.5796 14.4954L13.869 13.7918C13.3748 14.2909 13.3743 15.0983 13.8677 15.5981L14.5793 14.8955ZM18.8443 19.2151L14.5793 14.8955L13.8677 15.5981L18.1327 19.9176L18.8443 19.2151ZM19.2239 19.2153C19.1184 19.3219 18.9497 19.3218 18.8443 19.2151L18.1327 19.9176C18.6293 20.4205 19.4373 20.4211 19.9345 19.9189L19.2239 19.2153ZM19.2242 18.8153C19.3327 18.9252 19.3326 19.1056 19.2239 19.2153L19.9345 19.9189C20.4287 19.4198 20.4292 18.6124 19.9358 18.1127L19.2242 18.8153ZM19.1112 1.54054C18.0166 1.41782 16.5151 1.53998 15.3453 2.39167L15.9339 3.20009C16.8226 2.55307 18.0351 2.42616 18.9998 2.53431L19.1112 1.54054ZM19.6262 2.89449C20.024 2.43972 19.823 1.62033 19.1112 1.54054L18.9998 2.53431C18.9686 2.53082 18.9318 2.51685 18.8995 2.49C18.8691 2.46461 18.8504 2.43428 18.8406 2.40628C18.8219 2.35273 18.8298 2.28618 18.8735 2.23613L19.6262 2.89449ZM17.5281 5.29333L19.6262 2.89449L18.8735 2.23613L16.7754 4.63497L17.5281 5.29333ZM17.5104 4.76105C17.6558 4.90657 17.663 5.13901 17.5281 5.29333L16.7754 4.63497C16.5643 4.87624 16.576 5.24056 16.8029 5.46775L17.5104 4.76105ZM19.4174 6.67027L17.5104 4.76105L16.8029 5.46775L18.7099 7.37697L19.4174 6.67027ZM18.8662 6.66628C19.02 6.51668 19.2659 6.51856 19.4174 6.67027L18.7099 7.37697C18.9449 7.61222 19.3249 7.61508 19.5633 7.38318L18.8662 6.66628ZM21.2779 4.32089L18.8662 6.66628L19.5633 7.38318L21.9751 5.03779L21.2779 4.32089ZM22.6364 4.69742C22.4712 4.06506 21.7086 3.9021 21.2779 4.32089L21.9751 5.0378C21.9282 5.08338 21.8611 5.09746 21.8036 5.08239C21.7415 5.06615 21.6858 5.01479 21.6689 4.95017L22.6364 4.69742ZM21.3193 9.60772C22.5435 8.55785 23.1823 6.78714 22.6364 4.69742L21.6689 4.95016C22.1254 6.69781 21.5808 8.06604 20.6683 8.84863L21.3193 9.60772ZM16.8045 10.1532C18.3574 10.9418 20.1082 10.6463 21.3193 9.60772L20.6683 8.84863C19.7476 9.63819 18.43 9.85711 17.2572 9.26159L16.8045 10.1532ZM17.2487 10.0795C17.1205 10.2074 16.9389 10.2215 16.8045 10.1532L17.2572 9.26159C17.0278 9.14506 16.737 9.17746 16.5424 9.37155L17.2487 10.0795ZM9.54451 17.7647L17.2487 10.0795L16.5424 9.37155L8.83828 17.0567L9.54451 17.7647ZM9.6565 17.451C9.66301 17.5068 9.65663 17.561 9.64039 17.6103C9.62451 17.6586 9.59523 17.7141 9.5445 17.7647L8.83829 17.0567C8.6981 17.1965 8.64262 17.39 8.66323 17.5668L9.6565 17.451ZM9.09855 20.1436C9.58604 19.4898 9.78999 18.5961 9.6565 17.451L8.66323 17.5668C8.77647 18.5382 8.58961 19.1532 8.29684 19.5459L9.09855 20.1436ZM7.24415 21.2584C7.9176 21.1156 8.61438 20.793 9.09855 20.1436L8.29685 19.5459C8.00217 19.9411 7.55641 20.17 7.03668 20.2802L7.24415 21.2584ZM5.31983 21.2929C5.88013 21.3756 6.57282 21.4008 7.24415 21.2584L7.03668 20.2802C6.51544 20.3907 5.94855 20.3749 5.46584 20.3036L5.31983 21.2929ZM4.00237 20.9018C4.27546 21.0675 4.7827 21.2136 5.31983 21.2929L5.46584 20.3036C4.9682 20.2302 4.6209 20.1074 4.52116 20.0469L4.00237 20.9018ZM2.80904 19.2818C3.03674 19.9354 3.43731 20.5589 4.00237 20.9018L4.52116 20.0469C4.22361 19.8663 3.93617 19.4775 3.75338 18.9528L2.80904 19.2818ZM2.6405 17.0976C2.49405 17.837 2.5773 18.6165 2.80904 19.2818L3.75338 18.9528C3.57324 18.4357 3.51345 17.8372 3.62144 17.2919L2.6405 17.0976ZM3.9027 15.1345C3.17725 15.6235 2.78841 16.3507 2.6405 17.0976L3.62144 17.2919C3.72853 16.7512 3.99617 16.2775 4.46162 15.9638L3.9027 15.1345ZM6.83676 14.6018C5.60396 14.4486 4.62492 14.6477 3.9027 15.1345L4.46162 15.9638C4.92892 15.6488 5.6456 15.4615 6.71347 15.5942L6.83676 14.6018ZM6.51028 14.7212C6.60391 14.6224 6.72722 14.5882 6.83675 14.6018L6.71348 15.5942C6.89856 15.6172 7.09722 15.5556 7.23616 15.409L6.51028 14.7212ZM13.8252 7.00124L6.51028 14.7212L7.23617 15.409L14.5511 7.68905L13.8252 7.00124ZM13.7213 7.3136C13.7081 7.20994 13.7376 7.09376 13.8252 7.00124L14.5511 7.68905C14.6825 7.55038 14.7356 7.36224 14.7133 7.18716L13.7213 7.3136ZM15.3453 2.39167C14.1227 3.28183 13.4083 4.85781 13.7213 7.31359L14.7133 7.18716C14.4338 4.99439 15.0789 3.82265 15.9339 3.20009L15.3453 2.39167ZM14.9278 7.15919C14.6559 5.02541 15.2849 3.94224 16.0603 3.37768L15.4717 2.56925C14.3292 3.40114 13.6303 4.88825 13.9359 7.28562L14.9278 7.15919ZM14.7073 7.84045C14.8874 7.65045 14.9579 7.3949 14.9278 7.15919L13.9359 7.28562C13.9306 7.24448 13.9412 7.19514 13.9814 7.15264L14.7073 7.84045ZM7.39237 15.5604L14.7073 7.84045L13.9814 7.15264L6.66648 14.8726L7.39237 15.5604ZM6.6871 15.8113C6.93316 15.8419 7.20171 15.7616 7.39237 15.5604L6.66648 14.8726C6.7102 14.8264 6.76458 14.8133 6.81038 14.819L6.6871 15.8113ZM4.5816 16.1458C4.99404 15.8679 5.65451 15.6831 6.6871 15.8113L6.81038 14.819C5.61268 14.6702 4.68992 14.8669 4.02269 15.3166L4.5816 16.1458ZM3.83358 17.3349C3.93157 16.8401 4.17237 16.4217 4.5816 16.1458L4.02269 15.3166C3.35364 15.7676 2.99151 16.4394 2.85263 17.1406L3.83358 17.3349ZM3.95744 18.8801C3.78869 18.3957 3.73409 17.8372 3.83358 17.3349L2.85263 17.1406C2.7147 17.837 2.79274 18.5765 3.0131 19.209L3.95744 18.8801ZM4.63247 19.8592C4.39274 19.7138 4.13019 19.376 3.95744 18.8801L3.0131 19.209C3.23085 19.8341 3.60661 20.4064 4.11369 20.7141L4.63247 19.8592ZM5.49708 20.0871C5.26434 20.0528 5.06165 20.0064 4.90463 19.9603C4.82612 19.9372 4.76181 19.915 4.71266 19.8955C4.6882 19.8858 4.66896 19.8774 4.65457 19.8706C4.64746 19.8672 4.64204 19.8644 4.63814 19.8624C4.63419 19.8603 4.63242 19.8592 4.63247 19.8592L4.11369 20.7141C4.24418 20.7933 4.42918 20.8628 4.62256 20.9197C4.82651 20.9796 5.07479 21.0356 5.35107 21.0764L5.49708 20.0871ZM6.99227 20.066C6.50316 20.1698 5.96319 20.1559 5.49708 20.0871L5.35107 21.0764C5.89477 21.1566 6.56054 21.1798 7.19975 21.0443L6.99227 20.066ZM8.1241 19.4142C7.87064 19.7541 7.47912 19.9628 6.99227 20.066L7.19974 21.0443C7.8406 20.9084 8.48299 20.6058 8.9258 20.0119L8.1241 19.4142ZM8.44836 17.5924C8.55709 18.5251 8.37423 19.0787 8.1241 19.4142L8.9258 20.0119C9.37053 19.4154 9.57064 18.5832 9.44164 17.4766L8.44836 17.5924ZM8.68635 16.9009C8.49377 17.093 8.42078 17.3558 8.44836 17.5924L9.44164 17.4766C9.44611 17.515 9.4366 17.565 9.39258 17.6089L8.68635 16.9009ZM16.3905 9.21576L8.68635 16.9009L9.39259 17.6089L17.0967 9.92374L16.3905 9.21576ZM17.3543 9.06603C17.0508 8.91193 16.6579 8.94903 16.3905 9.21576L17.0967 9.92374C17.0369 9.98341 16.9561 9.98538 16.9015 9.95766L17.3543 9.06603ZM20.5284 8.68174C19.6706 9.41737 18.4458 9.62027 17.3543 9.06603L16.9015 9.95766C18.373 10.7049 20.031 10.4256 21.1794 9.44082L20.5284 8.68174ZM21.4597 5.00606C21.8964 6.6776 21.3731 7.95726 20.5284 8.68174L21.1794 9.44082C22.3357 8.44918 22.9533 6.76712 22.4273 4.75331L21.4597 5.00606ZM22.125 5.19552C21.9089 5.40572 21.5379 5.30546 21.4597 5.00606L22.4273 4.75332C22.312 4.31215 21.7619 4.15381 21.4279 4.47863L22.125 5.19552ZM19.7133 7.54091L22.125 5.19552L21.4279 4.47862L19.0161 6.82401L19.7133 7.54091ZM18.5577 7.53248C18.8761 7.85126 19.3902 7.85512 19.7133 7.54091L19.0161 6.82401C19.0853 6.75671 19.1971 6.75761 19.2652 6.82578L18.5577 7.53248ZM16.6507 5.62326L18.5577 7.53248L19.2652 6.82578L17.3582 4.91656L16.6507 5.62326ZM16.6133 4.48999C16.3263 4.81819 16.3422 5.3144 16.6507 5.62326L17.3582 4.91656C17.422 4.98042 17.4249 5.08099 17.366 5.14835L16.6133 4.48999ZM18.7115 2.09115L16.6133 4.48999L17.366 5.14835L19.4642 2.74951L18.7115 2.09115ZM18.976 2.7518C18.6376 2.71386 18.5111 2.32024 18.7115 2.09115L19.4642 2.74951C19.7811 2.38716 19.5726 1.81242 19.0874 1.75802L18.976 2.7518ZM16.0603 3.37768C16.8885 2.77474 18.039 2.64676 18.976 2.7518L19.0874 1.75802C18.0203 1.63839 16.5809 1.76172 15.4717 2.56925L16.0603 3.37768ZM6.41364 17.9735C6.41364 18.2466 6.19629 18.4582 5.94006 18.4582V19.4582C6.75922 19.4582 7.41364 18.7881 7.41364 17.9735H6.41364ZM5.94006 17.4889C6.19629 17.4889 6.41364 17.7005 6.41364 17.9735H7.41364C7.41364 17.1589 6.75922 16.4889 5.94006 16.4889V17.4889ZM5.46647 17.9735C5.46647 17.7005 5.68382 17.4889 5.94006 17.4889V16.4889C5.1209 16.4889 4.46647 17.1589 4.46647 17.9735H5.46647ZM5.94006 18.4582C5.68382 18.4582 5.46647 18.2466 5.46647 17.9735H4.46647C4.46647 18.7881 5.1209 19.4582 5.94006 19.4582V18.4582ZM6.63 17.9735C6.63 18.3674 6.31578 18.677 5.94006 18.677V19.677C6.87871 19.677 7.63 18.909 7.63 17.9735H6.63ZM5.94006 17.27C6.31578 17.27 6.63 17.5797 6.63 17.9735H7.63C7.63 17.0381 6.87871 16.27 5.94006 16.27V17.27ZM5.25012 17.9735C5.25012 17.5797 5.56433 17.27 5.94006 17.27V16.27C5.00141 16.27 4.25012 17.0381 4.25012 17.9735H5.25012ZM5.94006 18.677C5.56433 18.677 5.25012 18.3674 5.25012 17.9735H4.25012C4.25012 18.909 5.00141 19.677 5.94006 19.677V18.677Z" fill="black" mask="url(#path-1-outside-1_4_812)"/>
</svg>
